PathFileType	4	(X/Y/Z)	Run_200 02
DataRate	CameraRate	NumFrames	NumMarkers	Units	OrigDataRate	OrigDataStartFrame	OrigNumFrames
120	120	4	42	mm	120	429	128
Frame#	Time	LASI			RASI			LPSI			RPSI			RTH1			RTH2			RTH3			LTH1			LTH2			LTH3			RTB1			RTB2			RTB3			LTB1			LTB2			LTB3			RCAL			RTOE			RMT5			LCAL			LTOE			LMT5			LACR			RACR			CLAV			C7			RUA1			RUA2			RUA3			RLEL			RMEL			LUA1			LUA2			LUA3			LLEL			LMEL			RFAsuperior			RFAradius			RFAulna			LFAsuperior			LFAradius			LFAulna		
		X1	Y1	Z1	X2	Y2	Z2	X3	Y3	Z3	X4	Y4	Z4	X5	Y5	Z5	X6	Y6	Z6	X7	Y7	Z7	X8	Y8	Z8	X9	Y9	Z9	X10	Y10	Z10	X11	Y11	Z11	X12	Y12	Z12	X13	Y13	Z13	X14	Y14	Z14	X15	Y15	Z15	X16	Y16	Z16	X17	Y17	Z17	X18	Y18	Z18	X19	Y19	Z19	X20	Y20	Z20	X21	Y21	Z21	X22	Y22	Z22	X23	Y23	Z23	X24	Y24	Z24	X25	Y25	Z25	X26	Y26	Z26	X27	Y27	Z27	X28	Y28	Z28	X29	Y29	Z29	X30	Y30	Z30	X31	Y31	Z31	X32	Y32	Z32	X33	Y33	Z33	X34	Y34	Z34	X35	Y35	Z35	X36	Y36	Z36	X37	Y37	Z37	X38	Y38	Z38	X39	Y39	Z39	X40	Y40	Z40	X41	Y41	Z41	X42	Y42	Z42	

429	  3.575000	934.328811	1031.914742	-432.154794	913.795437	1056.783684	-168.890611	747.230344	1073.806959	-359.508854	739.948957	1077.650837	-279.169307	855.825166	891.529532	-115.613662	919.636176	787.462598	-120.955353	862.684670	666.624809	-158.407186	918.595174	818.896474	-470.649817	1012.280833	718.769713	-454.166945	976.375628	599.877315	-436.519184	909.086337	372.727925	-244.399514	869.843591	313.771762	-180.569047	835.126126	223.674102	-253.163277	941.557956	411.061498	-374.578471	853.245946	390.426957	-429.893179	761.216553	317.097729	-373.346173	654.431206	109.788034	-266.865790	884.528667	 68.769784	-294.500117	817.865932	 47.761138	-196.408160	585.831752	342.545912	-360.186286	696.478443	136.037444	-365.956456	636.515931	188.393671	-449.159488	939.538489	1507.693668	-478.261638	934.614906	1505.835652	-130.016185	982.593135	1451.509188	-270.852454	864.694387	1551.241127	-300.026575	919.909050	1403.113384	-49.440783	920.999389	1312.812104	-45.900683	853.031761	1310.489528	 -6.278410	849.940669	1182.964596	 58.595788	807.562497	1161.942206	-10.288046	904.806206	1418.635614	-551.680377	895.508333	1346.498199	-544.737189	798.415516	1362.602654	-550.849100	754.618823	1210.102256	-615.201512	701.222471	1212.101097	-545.550653	953.891613	1154.771660	 31.648434	1083.523468	1116.361222	-84.597336	1079.835478	1066.091570	-31.020769	838.651819	1164.755203	-581.848158	958.830557	1112.682049	-450.488010	940.022140	1055.536387	-490.976051	
430	  3.583333	934.451375	1035.139105	-431.453079	912.493704	1059.244485	-168.304482	747.218139	1077.838495	-359.989056	739.553728	1081.522490	-279.524271	851.621746	893.575335	-116.329414	912.862800	787.962739	-121.877485	852.673318	668.628794	-159.358095	920.871429	823.664034	-470.995984	1017.266192	726.043868	-454.516140	984.070897	606.612198	-436.984758	893.038957	372.812849	-245.388359	853.136254	314.465055	-181.604727	818.268516	224.378535	-254.021961	954.848147	413.141884	-374.568863	866.951767	391.356023	-429.735993	778.152876	314.294485	-373.141131	638.208419	111.167705	-266.931742	867.861306	 68.484988	-294.347812	801.076003	 47.996854	-196.489976	601.269463	332.053714	-359.443191	722.008816	131.237737	-366.288444	659.185196	180.850316	-449.055109	937.578607	1511.690529	-478.905109	937.051416	1511.213598	-131.350370	983.117263	1455.494249	-272.200952	864.863378	1554.660396	-299.992482	923.574354	1409.035690	-50.510457	927.348531	1318.454044	-47.524896	861.166303	1314.936680	 -5.054309	859.800777	1186.806283	 57.546771	816.188961	1165.874545	-11.007544	900.742547	1424.176876	-552.564173	890.526348	1352.420619	-546.516538	793.329902	1370.412148	-551.309770	746.716338	1218.981137	-616.528309	694.136954	1221.005479	-546.163184	964.113633	1163.742896	 27.818283	1092.257238	1132.802746	-91.690908	1092.123177	1081.490836	-38.993926	831.766545	1175.094587	-584.340812	953.101855	1122.640116	-455.528310	933.593255	1064.878906	-494.504182	
431	  3.591667	934.805277	1038.877124	-430.833606	911.718090	1061.837318	-167.589102	747.335370	1082.438439	-360.232571	739.601443	1085.849240	-279.631567	847.289530	895.873616	-117.306411	906.209856	788.827111	-123.137135	842.614073	671.116065	-160.550284	923.076677	829.052857	-471.633065	1021.775630	733.610390	-454.966520	990.984127	613.724520	-437.493255	875.518285	373.350721	-246.761621	834.976115	315.657167	-183.059844	799.919329	225.548927	-255.364755	967.532391	415.872208	-374.798347	880.407647	392.087400	-429.555066	795.227475	311.303233	-372.633951	622.109099	112.930529	-267.222657	851.288342	 68.326674	-294.288497	784.279711	 48.280886	-196.787067	617.225100	320.672984	-358.532289	748.219291	126.403059	-366.366588	682.589526	172.882951	-448.733703	935.236565	1516.394562	-479.393808	939.785318	1516.958975	-132.812923	983.815127	1460.080276	-273.686505	865.108339	1558.518368	-299.934195	927.375749	1415.377039	-51.752472	933.411861	1324.635284	-49.393558	869.081654	1320.364054	 -4.186878	868.880196	1191.498500	 56.282655	824.029452	1170.762644	-12.057158	896.033033	1430.966486	-553.414861	885.537169	1359.507722	-548.690693	788.274268	1378.860998	-551.705232	739.067518	1228.593439	-617.418686	687.074594	1230.642093	-546.290210	973.078882	1173.275316	 23.943944	1099.515957	1150.021612	-98.836150	1102.925486	1097.880196	-47.081036	825.330842	1186.266211	-586.195903	947.648562	1133.205681	-460.360088	927.585585	1074.834636	-497.787399	
432	  3.600000	935.213995	1043.157459	-430.389331	911.459772	1064.338763	-166.834072	747.589812	1087.576611	-360.306258	739.999688	1090.567105	-279.514938	843.120877	898.456882	-118.453131	899.674478	790.102334	-124.631810	832.596479	674.084470	-161.981061	925.222418	835.072841	-472.569439	1025.819957	741.453383	-455.500301	997.036917	621.124682	-438.013097	858.265138	374.473223	-248.033610	817.087952	317.457327	-184.436078	781.822481	227.289845	-256.678519	979.485215	419.513907	-375.246414	893.587904	392.596462	-429.358493	812.375349	308.137834	-371.883109	606.193895	115.233468	-267.683988	834.838416	 68.420344	-294.239307	767.473692	 48.614446	-197.345323	633.734716	308.526313	-357.514899	775.057831	121.613563	-366.156802	706.734222	164.561524	-448.208145	932.683193	1521.682955	-479.726749	942.765306	1522.964867	-134.324343	984.692296	1465.201365	-275.281792	865.479428	1562.781610	-299.836403	931.499844	1421.937181	-53.191210	939.116587	1331.190507	-51.410189	876.582266	1326.499498	 -3.696752	877.190126	1196.841214	 54.895430	831.141063	1176.309240	-13.301362	890.999996	1438.784212	-554.275076	880.675379	1367.479778	-551.118457	783.472374	1387.722191	-551.955291	731.678343	1238.729901	-617.917653	680.437931	1240.830054	-546.071084	980.941193	1183.183419	 20.056334	1105.349663	1167.774107	-105.926504	1112.185570	1114.952948	-55.260222	818.754263	1197.344091	-587.861516	942.403517	1144.161960	-464.707468	921.966934	1085.258715	-500.888234	
